<?xml version="1.0" encoding="UTF-8"?>
<svg id="Layer_2" data-name="Layer 2" xmlns="http://www.w3.org/2000/svg" viewBox="0 0 612 792">
  <g id="Community">
    <rect x="23.3" y="280.9" width="565.4" height="230.2" fill="#231f20"/>
    <g>
      <path d="M252.03,368.06h12.04c3.28,0,6.1,1.18,8.45,3.54,2.35,2.36,3.53,5.17,3.53,8.44v30.04c0,3.24-1.18,6.05-3.53,8.42-2.35,2.37-5.17,3.56-8.45,3.56h-12.04c-3.28,0-6.1-1.18-8.45-3.53-2.35-2.35-3.53-5.17-3.53-8.45v-30.04c0-3.28,1.18-6.1,3.53-8.45,2.35-2.35,5.17-3.53,8.45-3.53ZM263.95,379.03c-.83-3.3-2.79-4.95-5.91-4.95-1.65,0-3.07.59-4.25,1.76-1.18,1.17-1.77,2.57-1.77,4.21v20.42l11.92-21.43ZM252.17,411c.3,1.67.94,2.92,1.93,3.77s2.3,1.27,3.95,1.27,3.09-.59,4.26-1.77c1.17-1.18,1.76-2.58,1.76-4.19v-20.39l-11.9,21.32Z" fill="none" stroke="#e76e36" stroke-miterlimit="10" stroke-width="2"/>
      <path d="M294.05,380.04h-6.02c.94-7.99,4.93-11.98,11.98-11.98h12.04c3.28,0,6.1,1.18,8.45,3.54,2.35,2.36,3.53,5.17,3.53,8.44v3.04c0,4.14-3.87,9.52-11.62,16.12l-.79.7c-7.74,6.62-11.62,11.82-11.62,15.61v.53h24.02v6.02h-36v-6.02c0-4.14,3.86-9.52,11.59-16.14l.82-.7c7.74-6.6,11.62-11.97,11.62-16.12v-3.04c0-1.63-.6-3.03-1.8-4.21-1.2-1.17-2.61-1.76-4.22-1.76h-6.02c-3.69,0-5.68,1.99-5.96,5.96Z" fill="none" stroke="#e76e36" stroke-miterlimit="10" stroke-width="2"/>
      <path d="M347.99,422.06v-42.02h-6.02v-5.96l12.01-6.02h5.99v54h-11.98Z" fill="none" stroke="#e76e36" stroke-miterlimit="10" stroke-width="2"/>
    </g>
    <rect x="107.08" y="339.69" width="397.83" height="112.62" fill="none" stroke="#fff" stroke-miterlimit="10" stroke-width="9"/>
    <g>
      <rect x="154.33" y="374.43" width="303.83" height="87.35" fill="none"/>
      <path d="M170.61,372.89c1.07,1.74,3.42,2.81,6.23,2.81,2.14,0,4.42-.94,5.56-2.35l.34.33c-3.15,5.56-6.97,8.38-10.12,8.38-2.55,0-4.09-1.01-5.56-3.28-.67.8-.67,1.94-.67,3.08v23.12c0,4.69,4.09,6.97,8.04,6.97s7.5-2.01,9.18-4.89v2.75l-11.05,9.38c-1.94-.27-5.23-1.01-7.64-2.01-4.96-2.01-7.1-5.43-7.1-10.85v-17.49c0-3.35.13-5.29,3.62-8.24l9.18-7.71Z" fill="#fff"/>
      <path d="M189.24,387.43c0-6.7,2.14-11.26,10.45-15.81l.54.94c-1.47,1.54-2.41,2.88-2.41,5.09v25.39c0,4.22,1.34,5.96,6.23,8.44.74-.67.87-1.61.87-3.15v-25.33c0-1.41-.67-2.21-2.08-2.21h-4.76l4.22-7.44h4.76c4.35,0,6.43,2.28,6.43,6.97v22.04c0,3.82-1.27,6.16-4.29,8.64l-8.98,7.57c-2.14-.8-4.36-2.41-6.57-4.35-3.01-2.68-4.42-4.76-4.42-9.25v-17.55Z" fill="#fff"/>
      <path d="M228.1,373.09c1.54,1.34,2.34,3.15,2.34,5.23v1.94l8.84-7.17c2.41,2.14,3.89,4.42,4.22,7.17l8.64-7.17c3.08,2.28,4.42,5.43,4.42,9.92v28.74c0,.33.47,1,.74,1s.54-.2.6-.27l.87-.87v.94l-7.5,6.37c-2.14-1.07-3.28-3.89-3.28-7.84v-28.14c0-1.07-.87-1.88-1.94-1.88-1.14,0-1.88.6-2.55,1.41v29.01c0,.47.13,1.27.6,1.27s.6-.27.8-.4l.87-.74v.94l-7.57,6.37c-2.14-1.21-3.28-4.22-3.28-8.31v-26.8c0-1.74-.67-2.75-2.01-2.75-1.07,0-1.81.67-2.48,1.41v29.01c0,.54.27,1.27.67,1.27s.67-.2.8-.33l.8-.8v.94l-7.57,6.37c-2.61-1.88-3.28-4.42-3.28-8.31v-28.48c0-.94-.27-1.88-.8-1.88-.27,0-.6.13-.8.33l-.74.54v-.87l8.58-7.17Z" fill="#fff"/>
      <path d="M272.72,373.09c1.54,1.34,2.35,3.15,2.35,5.23v1.94l8.84-7.17c2.41,2.14,3.89,4.42,4.22,7.17l8.64-7.17c3.08,2.28,4.42,5.43,4.42,9.92v28.74c0,.33.47,1,.74,1s.54-.2.6-.27l.87-.87v.94l-7.5,6.37c-2.14-1.07-3.28-3.89-3.28-7.84v-28.14c0-1.07-.87-1.88-1.94-1.88-1.14,0-1.88.6-2.55,1.41v29.01c0,.47.13,1.27.6,1.27s.6-.27.8-.4l.87-.74v.94l-7.57,6.37c-2.14-1.21-3.28-4.22-3.28-8.31v-26.8c0-1.74-.67-2.75-2.01-2.75-1.07,0-1.81.67-2.48,1.41v29.01c0,.54.27,1.27.67,1.27s.67-.2.8-.33l.8-.8v.94l-7.57,6.37c-2.61-1.88-3.28-4.42-3.28-8.31v-28.48c0-.94-.27-1.88-.8-1.88-.27,0-.6.13-.8.33l-.74.54v-.87l8.58-7.17Z" fill="#fff"/>
      <path d="M327.72,418.72c-1.21-.87-2.34-3.15-2.34-4.82v-2.28l-8.71,7.1-2.55-2.55c-2.88-2.88-3.08-5.23-3.08-8.64v-26.6c0-.74-.13-1.54-.87-1.54-.2,0-.47.07-.6.2l-.8.74v-.74l7.5-6.57c2.08,1,3.35,3.89,3.35,7.91v27.6c0,1.54.87,2.61,2.28,2.61s2.48-.74,3.48-1.88v-28.07c0-.94-.2-1.81-.8-1.81-.13,0-.6.13-.67.2l-.87.74v-.74l7.5-6.57c2.28,1.27,3.42,4.09,3.42,8.17v28.48c0,1.07,0,2.01.8,2.01.2,0,.6-.2.74-.33l.67-.6v.87l-8.44,7.1Z" fill="#fff"/>
      <path d="M350.64,373.02c1.21.87,2.34,3.15,2.34,4.82v2.28l8.71-7.1,2.55,2.55c2.88,2.88,3.08,5.29,3.08,8.71v26.53c0,.8.13,1.54.87,1.54.2,0,.54-.07.67-.2l.74-.74v.74l-7.5,6.57c-1.94-1-3.35-3.82-3.35-7.3v-28.21c0-1.54-.87-2.61-2.28-2.61-.94,0-2.48.74-3.48,1.88v28.07c0,.94.13,1.88.87,1.88.27,0,.54-.2.6-.27l.87-.74v.74l-7.5,6.57c-2.14-1.41-3.42-4.02-3.42-7.3v-29.35c0-.94,0-2.01-.67-2.01-.33,0-.6.2-.8.33l-.74.6v-.87l8.44-7.1Z" fill="#fff"/>
      <path d="M380.12,373.36h3.28c2.34,0,3.82,1.74,3.82,4.22v33.57c0,.54.13,1.14.74,1.14.13,0,.6-.13.67-.2l.94-.74v.94l-7.64,6.37c-2.14-1.47-3.28-4.36-3.28-8.11v-28.21c0-1.21-.33-1.61-1.54-1.61h-1.27l4.29-7.37Z" fill="#fff"/>
      <path d="M398.27,373.36h23.79l-4.15,7.37h-5.63v30.28c0,1.41.87,1.61,1.41,1.21l.94-.67v.67l-7.64,6.5c-2.75-2.01-3.28-4.22-3.28-7.84v-30.15h-9.71l4.29-7.37Z" fill="#fff"/>
      <path d="M435.39,372.35c1.54,1.07,2.41,3.28,2.41,5.9v28.95c0,2.14.54,3.15,2.28,3.15,1.34,0,2.75-.74,3.55-2.01v-27.14c0-1.41-.6-2.14-1.61-1.47l-.8.54v-.74l8.58-7.17c1.47.87,2.41,2.95,2.41,5.49v32.03c0,5.49-.54,8.64-5.29,13.87-2.21,2.41-4.56,4.36-6.9,5.56l-2.61.07c6.7-4.35,6.1-9.92,6.23-18.56l-8.84,7.44-2.28-2.21c-2.28-2.21-3.35-4.49-3.35-7.71,0-.27.07-.47.07-.74v-26.6c0-1.21-.6-1.88-1.61-1.21l-.67.47v-.8l8.44-7.1Z" fill="#fff"/>
    </g>
  </g>
  <circle id="i" cx="382.62" cy="363.58" r="4.45" fill="#fff"/>
  <g>
    <path d="M204.18,472.17l-.17.73-8.44,7.08h4.91c1.28,0,1.37.02,1.93-1.68l.13-.38h.76l-.95,2.81h-8l.19-.86,8.34-6.95h-4.07c-1.57,0-1.47.15-2.02,1.62l-.15.4h-.78l.95-2.77h7.37Z" fill="#f1f2f2"/>
    <path d="M208.53,476.83c-.42,2.35,1.16,3.4,3.4,3.4,1.34,0,2.56-.38,4.01-.92l.13.67c-1.49.65-3.11,1.01-4.6,1.01-2.58,0-4.39-1.6-3.8-4.33.54-2.6,2.9-4.75,5.56-4.75s3.93,1.68,3.23,4.16l-.21.76h-7.73ZM215.6,476.08c.53-2-.65-3.4-2.52-3.4s-3.76,1.45-4.35,3.4h6.87Z" fill="#f1f2f2"/>
    <path d="M222.6,479.98h3.88l-.17.76h-6.57l.17-.76h1.87l1.49-7.1c-.61.13-1.03.29-1.66.32l.04-.74c.59-.02,1.34-.13,1.89-.65.17-.15.29-.27.52-.27.29,0,.21.52.15.82l-.36,1.68c1.37-.88,3.07-2.12,4.56-2.12.9,0,1.41.61,1.55,1.43l-.96.34c-.04-.48-.27-1.01-.86-1.01-1.26,0-3.42,1.62-4.51,2.46l-1.03,4.85Z" fill="#f1f2f2"/>
    <path d="M232.83,476.46c.54-2.52,2.81-4.54,5.38-4.54s3.99,2.02,3.44,4.54c-.53,2.52-2.81,4.54-5.38,4.54s-3.97-2.02-3.44-4.54ZM240.76,476.46c.44-2.04-.59-3.78-2.71-3.78s-3.91,1.74-4.35,3.78c-.42,2.04.61,3.78,2.73,3.78s3.9-1.74,4.32-3.78Z" fill="#f1f2f2"/>
    <path d="M253.3,478.76l-1.34,1.97h-6.93l.19-.88,4.96-4.37c1.3-1.13,2.81-2.81,3.15-4.41.23-1.09-.4-2.44-2.08-2.44-.86,0-1.72.31-2.39,1.18-.15.61-.5,1.41-1.11,1.41-.27,0-.34-.23-.29-.46.38-1.76,2.39-2.88,3.99-2.88,1.83,0,3.17,1.26,2.77,3.17-.34,1.62-1.53,3.09-2.83,4.26l-4.03,3.63-1.22,1.03h5.48l1.01-1.39.69.17Z" fill="#f1f2f2"/>
    <path d="M258.03,476.46c.54-2.52,2.81-4.54,5.38-4.54s3.99,2.02,3.44,4.54c-.53,2.52-2.81,4.54-5.38,4.54s-3.97-2.02-3.44-4.54ZM265.96,476.46c.44-2.04-.59-3.78-2.71-3.78s-3.91,1.74-4.35,3.78c-.42,2.04.61,3.78,2.73,3.78s3.9-1.74,4.32-3.78Z" fill="#f1f2f2"/>
    <path d="M271.61,479.98h1.64l-.17.76h-3.93l.17-.76h1.47l1.49-7.1c-.61.13-1.03.29-1.66.32l.04-.74c.59-.02,1.34-.13,1.89-.65.17-.15.29-.27.52-.27.29,0,.21.52.15.82l-.17.78c1.22-.59,2.71-1.22,3.95-1.22,1.09,0,1.78.29,2.06,1.09.19.55.17,1.32-.06,2.41l-.97,4.56h1.47l-.17.76h-3.93l.17-.76h1.64l.9-4.28c.32-1.45.65-3.02-1.28-3.02-1.32,0-2.73.65-3.97,1.34l-1.26,5.96Z" fill="#f1f2f2"/>
    <path d="M284.13,476.83c-.42,2.35,1.15,3.4,3.4,3.4,1.34,0,2.56-.38,4.01-.92l.12.67c-1.49.65-3.11,1.01-4.6,1.01-2.58,0-4.39-1.6-3.8-4.33.55-2.6,2.9-4.75,5.56-4.75s3.93,1.68,3.23,4.16l-.21.76h-7.73ZM291.2,476.08c.52-2-.65-3.4-2.52-3.4s-3.76,1.45-4.35,3.4h6.87Z" fill="#f1f2f2"/>
    <path d="M299.82,478.43c.69,0,1.15.59,1.01,1.28-.15.69-.86,1.28-1.55,1.28s-1.15-.59-1.01-1.28c.15-.69.86-1.28,1.55-1.28Z" fill="#f1f2f2"/>
    <path d="M316.24,480.07c-1.22.59-2.79.92-4.05.92-2.62,0-4.26-1.74-3.67-4.45.57-2.69,2.92-4.62,5.61-4.62,1.09,0,2.42.34,2.73,1.37l-.19.88-.21,1.03h-.76l.08-.38c.34-1.53-.4-2.14-1.89-2.14-2.18,0-4.03,1.6-4.47,3.74-.48,2.25.74,3.82,2.98,3.82,1.15,0,2.56-.34,3.72-.86l.12.69Z" fill="#f1f2f2"/>
    <path d="M321.02,476.46c.55-2.52,2.81-4.54,5.38-4.54s3.99,2.02,3.44,4.54c-.52,2.52-2.81,4.54-5.38,4.54s-3.97-2.02-3.44-4.54ZM328.96,476.46c.44-2.04-.59-3.78-2.71-3.78s-3.91,1.74-4.35,3.78c-.42,2.04.61,3.78,2.73,3.78s3.91-1.74,4.33-3.78Z" fill="#f1f2f2"/>
    <path d="M333.92,479.98h1.03l-.17.76h-3.13l.17-.76h1.28l1.49-7.1c-.61.13-1.03.29-1.66.32l.04-.74c.59-.02,1.34-.13,1.89-.65.17-.15.29-.27.52-.27.29,0,.21.52.04,1.3.63-.44,1.7-.92,2.39-.92.74,0,1.2.38,1.32,1.05.84-.61,1.78-1.05,2.77-1.05.82,0,1.18.36,1.3.86.13.54-.02,1.26-.17,1.91l-1.11,5.29h1.28l-.17.76h-3.13l.17-.76h1.03l1.11-5.29c.17-.8.52-2.02-.59-2.02-.82,0-1.72.55-2.39,1.05l-1.32,6.26h1.03l-.17.76h-2.88l.17-.76h1.03l1.11-5.29c.17-.8.46-2.02-.63-2.02-.69,0-1.74.61-2.35,1.05l-1.32,6.26Z" fill="#f1f2f2"/>
    <path d="M346.52,479.98h1.03l-.17.76h-3.13l.17-.76h1.28l1.49-7.1c-.61.13-1.03.29-1.66.32l.04-.74c.59-.02,1.34-.13,1.89-.65.17-.15.29-.27.52-.27.29,0,.21.52.04,1.3.63-.44,1.7-.92,2.39-.92.74,0,1.2.38,1.32,1.05.84-.61,1.78-1.05,2.77-1.05.82,0,1.18.36,1.3.86.13.54-.02,1.26-.17,1.91l-1.11,5.29h1.28l-.17.76h-3.13l.17-.76h1.03l1.11-5.29c.17-.8.52-2.02-.59-2.02-.82,0-1.72.55-2.39,1.05l-1.32,6.26h1.03l-.17.76h-2.88l.17-.76h1.03l1.11-5.29c.17-.8.46-2.02-.63-2.02-.69,0-1.74.61-2.35,1.05l-1.32,6.26Z" fill="#f1f2f2"/>
    <path d="M365.27,480.02c-1.22.57-2.48.97-3.72.97-1.8,0-2.64-1.05-2.12-3.51l.97-4.6c-.61.13-1.03.29-1.66.32l.04-.74c.59-.02,1.34-.13,1.89-.65.17-.15.29-.27.52-.27.29,0,.21.52.15.82l-1.03,4.79c-.5,2.37.02,3.09,1.51,3.09,1.2,0,2.46-.48,3.61-1.01l1.34-6.34c-.61.13-1.03.29-1.66.32l.04-.74c.59-.02,1.34-.13,1.89-.65.17-.15.29-.27.52-.27.29,0,.21.52.15.82l-1.62,7.62h1.7l-.17.76h-2.52l.15-.71Z" fill="#f1f2f2"/>
    <path d="M372.41,479.98h1.64l-.17.76h-3.93l.17-.76h1.47l1.49-7.1c-.61.13-1.03.29-1.66.32l.04-.74c.59-.02,1.34-.13,1.89-.65.17-.15.29-.27.52-.27.29,0,.21.52.15.82l-.17.78c1.22-.59,2.71-1.22,3.95-1.22,1.09,0,1.78.29,2.06,1.09.19.55.17,1.32-.06,2.41l-.97,4.56h1.47l-.17.76h-3.93l.17-.76h1.64l.9-4.28c.32-1.45.65-3.02-1.28-3.02-1.32,0-2.73.65-3.97,1.34l-1.26,5.96Z" fill="#f1f2f2"/>
    <path d="M383.27,479.98h4.26l1.49-7.1c-.44.08-1.53.21-2.71.27l-1.41.06.04-.76c.44,0,.92-.02,1.41-.04,1.26-.06,2.54-.23,2.94-.61.17-.15.29-.27.53-.27.29,0,.21.52.15.82l-1.62,7.62h3.78l-.17.76h-8.86l.17-.76ZM389.8,470.16c-.63,0-1.03-.5-.88-1.13.13-.63.74-1.13,1.36-1.13s1.03.5.9,1.13c-.15.63-.76,1.13-1.39,1.13Z" fill="#f1f2f2"/>
    <path d="M400.91,472.17h5l-.17.76h-5l-.97,4.6c-.27,1.26-.65,2.71,1.03,2.71,1.13,0,2.58-.4,3.76-.65l.08.71c-1.34.34-2.79.69-4.14.69-1.68,0-2.12-.8-1.55-3.46l.97-4.6h-3.09l.17-.76h3.09l.5-2.41h.82l-.5,2.41Z" fill="#f1f2f2"/>
    <path d="M413.3,472.17l-.17.76h-1.83l1.93,6.49,4.24-6.49h-1.83l.17-.76h3.95l-.17.76h-1.3l-5.96,9.22c-.97,1.49-1.91,3.13-3.8,3.13-.69,0-1.45-.25-1.93-.65l.46-.71c.42.36,1.07.61,1.7.61,1.26,0,2.21-1.57,2.81-2.54l1.05-1.64-2.2-7.41h-1.24l.17-.76h3.95Z" fill="#f1f2f2"/>
  </g>
</svg>